<?xml version="1.0" standalone="no"?>
<!DOCTYPE svg PUBLIC "-//W3C//DTD SVG 20010904//EN"
 "http://www.w3.org/TR/2001/REC-SVG-20010904/DTD/svg10.dtd">
<svg version="1.0" xmlns="http://www.w3.org/2000/svg"
 width="680.000000pt" height="680.000000pt" viewBox="0 0 680.000000 680.000000"
 preserveAspectRatio="xMidYMid meet">

<g transform="translate(0.000000,680.000000) scale(0.100000,-0.100000)"
fill="#000000" stroke="none">
<path d="M1740 5853 c-28 -10 -69 -56 -75 -84 -7 -32 16 -83 44 -99 31 -16 31
-12 0 19 -48 48 -38 116 22 147 24 12 37 13 61 5 17 -6 33 -9 35 -7 4 4 -55
27 -66 25 -3 0 -13 -3 -21 -6z"/>
<path d="M4255 5770 c-56 -62 20 -150 96 -110 32 18 21 31 -22 28 -30 -2 -44
2 -53 15 -17 26 4 52 45 53 50 1 53 3 39 19 -19 22 -83 19 -105 -5z"/>
<path d="M4407 5772 c-40 -45 -6 -122 53 -122 63 0 98 90 48 124 -30 22 -81
20 -101 -2z m83 -27 c26 -32 -13 -81 -47 -59 -35 22 -23 74 17 74 10 0 23 -7
30 -15z"/>
<path d="M4556 5782 c-9 -14 3 -103 15 -118 6 -8 30 -12 60 -12 l49 1 0 69 c0
53 -3 68 -14 68 -11 0 -16 -15 -18 -52 -3 -49 -5 -53 -28 -53 -23 0 -25 5 -30
49 -5 46 -21 69 -34 48z"/>
<path d="M4710 5719 c0 -55 3 -69 15 -69 11 0 15 12 15 50 0 39 4 52 20 60 30
16 24 28 -15 28 l-35 0 0 -69z"/>
<path d="M4800 5769 c-9 -16 -8 -24 5 -39 10 -11 26 -20 38 -22 11 -2 22 -9
25 -16 3 -10 -6 -12 -31 -10 -20 2 -37 -1 -38 -7 -4 -15 44 -29 73 -22 52 13
42 70 -13 81 -41 8 -33 32 9 28 33 -3 44 11 16 22 -34 13 -73 6 -84 -15z"/>
<path d="M4941 5764 c-27 -35 -26 -59 4 -89 25 -26 68 -32 95 -15 21 13 4 25
-37 25 -20 0 -38 6 -40 13 -3 8 10 12 46 12 47 0 51 2 51 23 0 57 -82 78 -119
31z m87 -21 c2 -9 -8 -13 -32 -13 -34 0 -44 8 -29 24 11 11 56 2 61 -11z"/>
<path d="M5090 5719 c0 -55 3 -69 15 -69 11 0 15 12 15 50 0 39 4 52 20 60 30
16 24 28 -15 28 l-35 0 0 -69z"/>
<path d="M5190 5770 c-26 -26 -26 -74 0 -100 16 -16 30 -19 72 -17 l53 3 3 65
3 65 -56 2 c-43 1 -60 -3 -75 -18z m90 -29 c14 -26 3 -50 -26 -57 -42 -11 -72
34 -42 64 18 18 56 14 68 -7z"/>
<path d="M1910 5760 c-43 -43 -14 -110 47 -110 38 0 63 27 63 68 0 56 -70 82
-110 42z m78 -12 c33 -33 -10 -99 -50 -77 -26 14 -33 36 -20 65 13 26 49 33
70 12z"/>
<path d="M2431 5754 c-24 -31 -25 -35 -9 -69 13 -28 45 -40 83 -31 38 10 30
23 -15 22 -53 -1 -54 15 -2 38 46 21 49 27 26 50 -23 24 -60 19 -83 -10z m69
-8 c0 -8 -13 -19 -30 -25 -26 -9 -30 -8 -30 8 0 24 9 31 37 31 13 0 23 -6 23
-14z"/>
<path d="M2224 5744 c-19 -28 -11 -73 15 -82 11 -4 10 1 -2 19 -22 31 -21 45
3 69 11 11 16 20 10 20 -5 0 -17 -12 -26 -26z"/>
<path d="M2305 5760 c-3 -5 -1 -10 4 -10 19 0 10 -121 -11 -142 -10 -10 -14
-18 -10 -18 5 0 16 8 25 18 13 14 17 38 17 90 0 66 -9 88 -25 62z"/>
<path d="M1813 5743 c44 -5 48 -23 12 -58 -13 -14 -21 -25 -16 -25 16 0 51 47
51 68 0 19 -5 22 -42 20 l-43 -1 38 -4z"/>
<path d="M2232 5604 c10 -10 20 -16 22 -13 3 3 -5 11 -17 18 -21 13 -21 12 -5
-5z"/>
<path d="M6110 5311 c0 -44 -3 -87 -6 -96 -5 -13 -2 -16 12 -13 16 3 20 14 22
72 4 74 -3 116 -18 116 -6 0 -10 -34 -10 -79z"/>
<path d="M2810 4982 c-44 -24 -80 -85 -80 -136 0 -84 74 -156 161 -156 78 0
136 51 146 130 l6 40 -77 0 c-74 0 -76 -1 -76 -25 0 -23 4 -25 45 -25 53 0 59
-17 19 -49 -87 -68 -207 31 -159 132 25 53 90 73 150 45 21 -9 29 -9 41 3 44
44 -107 79 -176 41z"/>
<path d="M3845 4988 c-3 -8 -4 -77 -3 -153 l3 -140 25 0 25 0 0 150 c0 148 0
150 -23 153 -12 2 -24 -3 -27 -10z"/>
<path d="M3160 4913 c-62 -19 -90 -56 -90 -119 0 -52 53 -104 107 -104 86 0
141 77 109 154 -20 48 -83 83 -126 69z m61 -61 c27 -22 30 -75 7 -99 -24 -23
-69 -19 -90 7 -26 32 -22 65 8 89 33 26 45 26 75 3z"/>
<path d="M3393 4909 c-86 -25 -101 -156 -23 -202 54 -32 130 -16 156 34 24 48
18 106 -15 140 -16 16 -36 29 -44 29 -9 0 -21 2 -29 4 -7 2 -27 0 -45 -5z m78
-60 c28 -28 22 -76 -13 -102 l-28 -21 -27 21 c-52 37 -32 123 27 123 11 0 29
-9 41 -21z"/>
<path d="M3634 4904 c-85 -42 -71 -189 20 -206 14 -3 38 1 54 8 34 14 43 10
35 -14 -17 -49 -61 -66 -94 -36 -22 20 -62 10 -57 -14 5 -24 46 -42 96 -42 35
0 49 6 73 29 29 29 29 30 29 155 0 118 -1 126 -19 126 -11 0 -22 -4 -26 -9 -3
-6 -19 -4 -40 5 -41 17 -33 17 -71 -2z m88 -51 c37 -33 12 -113 -35 -113 -31
0 -57 29 -57 63 0 57 52 86 92 50z"/>
<path d="M4020 4913 c-62 -20 -90 -56 -90 -119 0 -28 8 -44 34 -70 26 -26 42
-34 70 -34 43 0 96 24 96 44 0 22 -27 27 -57 11 -15 -8 -34 -15 -40 -15 -15 0
-53 36 -53 50 0 5 37 10 83 12 81 3 82 3 79 28 -6 53 -32 80 -87 93 -11 3 -27
3 -35 0z m58 -55 c22 -22 13 -28 -38 -28 -27 0 -50 4 -50 8 0 16 25 32 50 32
14 0 31 -5 38 -12z"/>
<path d="M4540 4481 c-16 -31 4 -63 37 -59 34 4 52 32 37 56 -16 26 -60 28
-74 3z"/>
<path d="M1700 4299 l0 -192 95 6 c78 4 104 10 139 31 101 59 116 215 29 298
-41 39 -74 48 -174 48 l-89 0 0 -191z m183 117 c46 -19 67 -55 67 -117 0 -46
-4 -55 -36 -85 -31 -30 -42 -34 -90 -34 l-54 0 0 125 0 125 40 0 c22 0 55 -6
73 -14z"/>
<path d="M2986 4313 c-37 -98 -68 -182 -69 -188 -1 -5 13 -11 31 -13 31 -3 34
0 54 47 l21 51 73 0 72 0 17 -50 c16 -47 19 -50 51 -50 19 0 34 3 34 8 0 4
-30 89 -67 190 l-67 182 -42 0 -41 0 -67 -177z m135 35 c26 -77 26 -78 -30
-78 l-50 0 20 58 c29 85 29 85 36 79 3 -4 14 -30 24 -59z"/>
<path d="M3902 4303 l3 -188 33 -3 32 -3 0 190 0 191 -35 0 -35 0 2 -187z"/>
<path d="M2388 4423 c-2 -31 -7 -39 -25 -41 -17 -2 -23 -10 -23 -27 0 -17 6
-25 23 -27 21 -3 22 -8 25 -90 3 -81 5 -89 29 -108 19 -14 38 -20 62 -18 32 3
36 6 39 35 3 27 1 31 -17 26 -38 -10 -51 14 -51 88 l0 69 35 0 c31 0 35 3 35
25 0 22 -4 25 -35 25 -34 0 -35 1 -35 40 0 38 -2 40 -29 40 -27 0 -30 -3 -33
-37z"/>
<path d="M4350 4421 c0 -33 -4 -40 -22 -43 -15 -2 -24 -11 -26 -25 -3 -19 1
-23 21 -23 24 0 25 -2 28 -86 4 -80 6 -87 33 -110 21 -19 38 -24 65 -22 33 3
36 6 39 36 3 30 1 33 -18 27 -37 -12 -50 11 -50 86 l0 69 36 0 c31 0 35 3 32
23 -2 17 -11 23 -35 25 -31 3 -33 6 -33 43 0 38 -1 39 -35 39 -34 0 -35 -1
-35 -39z"/>
<path d="M2130 4383 c-8 -3 -25 -14 -37 -23 -22 -17 -22 -18 -3 -35 17 -16 21
-16 42 -1 30 21 71 20 91 -2 33 -36 22 -47 -43 -44 -55 4 -62 2 -90 -26 -37
-38 -38 -71 -4 -111 21 -26 33 -31 68 -31 23 0 51 7 63 15 19 13 22 13 27 -1
4 -10 16 -14 33 -12 28 3 28 4 31 85 4 107 -6 142 -48 171 -32 21 -94 29 -130
15z m88 -149 c40 -11 20 -59 -31 -77 -27 -10 -57 10 -57 38 0 37 36 53 88 39z"/>
<path d="M2593 4370 c-37 -22 -41 -35 -15 -49 12 -6 25 -5 42 5 36 19 67 17
91 -7 32 -32 20 -43 -49 -40 -54 2 -64 -1 -87 -23 -34 -34 -34 -88 0 -121 29
-30 104 -35 125 -10 7 8 16 15 21 15 5 0 9 -7 9 -15 0 -10 10 -15 30 -15 l30
0 0 100 c0 69 -5 110 -15 129 -26 51 -123 67 -182 31z m121 -143 c16 -11 17
-17 7 -36 -21 -39 -82 -49 -103 -17 -31 45 48 88 96 53z"/>
<path d="M3407 4370 c-30 -24 -37 -25 -37 -5 0 10 -10 15 -30 15 l-31 0 3
-132 3 -133 30 0 30 0 3 85 c3 93 23 130 68 130 40 0 54 -35 54 -132 l0 -88
30 0 30 0 0 111 c0 109 0 111 -29 140 -36 35 -86 39 -124 9z"/>
<path d="M3651 4372 c-42 -21 -47 -33 -21 -50 17 -10 25 -10 43 3 12 8 31 15
42 15 28 0 65 -27 65 -48 0 -14 -8 -17 -45 -14 -87 7 -135 -23 -135 -85 0 -70
91 -109 155 -67 23 15 25 15 25 0 0 -13 7 -17 33 -14 l32 3 0 90 c0 50 -4 103
-8 118 -16 59 -115 86 -186 49z m127 -147 c11 -11 -19 -56 -44 -65 -50 -19
-89 25 -53 61 17 17 29 20 56 16 20 -4 38 -9 41 -12z"/>
<path d="M4723 4371 c-46 -29 -67 -66 -67 -120 0 -55 24 -101 66 -125 40 -24
110 -23 152 3 47 29 51 46 15 61 -25 11 -32 10 -48 -4 -28 -25 -76 -20 -100
10 -28 36 -27 79 4 109 28 29 70 32 97 8 15 -13 23 -14 43 -5 31 14 31 23 0
52 -35 33 -118 39 -162 11z"/>
<path d="M4980 4362 c-16 -17 -30 -39 -30 -50 0 -35 37 -69 89 -82 62 -15 84
-36 56 -56 -26 -19 -48 -18 -78 6 -22 17 -29 18 -51 9 -32 -15 -32 -20 -2 -49
47 -43 153 -43 188 0 23 28 23 82 1 102 -10 9 -38 22 -63 29 -25 7 -51 17 -57
22 -38 29 18 61 58 34 16 -12 27 -13 45 -5 29 14 30 20 4 43 -13 11 -41 20
-75 23 -50 4 -57 2 -85 -26z"/>
<path d="M4000 4376 c0 -4 27 -68 88 -208 l20 -46 -29 -62 -29 -61 38 3 37 3
77 175 c42 96 77 181 77 188 1 7 -12 12 -32 12 -33 0 -35 -2 -64 -77 -17 -42
-34 -78 -39 -80 -5 -2 -23 32 -40 75 -31 74 -33 77 -68 80 -20 2 -36 1 -36 -2z"/>
<path d="M4542 4248 l3 -133 33 -3 32 -3 0 135 0 136 -35 0 -36 0 3 -132z"/>
<path d="M3260 3810 c-19 -19 -20 -24 -7 -43 19 -28 40 -32 61 -11 21 21 17
42 -11 61 -19 13 -24 12 -43 -7z"/>
<path d="M2225 3807 c-61 -28 -115 -114 -115 -182 0 -104 91 -194 198 -195 46
0 105 21 134 47 18 16 17 17 -3 39 l-22 23 -28 -20 c-122 -86 -269 58 -186
182 41 61 120 78 172 38 l27 -22 25 25 25 25 -33 24 c-41 29 -146 37 -194 16z"/>
<path d="M3445 3797 c-15 -12 -30 -38 -34 -57 -5 -26 -13 -36 -29 -38 -16 -2
-22 -10 -22 -28 0 -19 5 -24 25 -24 l25 0 0 -105 0 -105 30 0 30 0 0 105 0
106 58 -3 57 -3 3 -102 3 -103 29 0 30 0 0 130 0 130 -84 0 c-47 0 -88 4 -91
10 -10 16 14 50 35 50 16 0 20 7 20 30 0 27 -3 30 -29 30 -17 0 -42 -10 -56
-23z"/>
<path d="M3584 3806 c-15 -40 21 -80 54 -60 37 24 21 74 -25 74 -13 0 -26 -6
-29 -14z"/>
<path d="M3058 3743 c-2 -31 -7 -39 -25 -41 -35 -5 -32 -52 2 -52 25 0 25 -1
25 -82 1 -91 9 -111 55 -128 46 -17 75 -5 75 31 0 25 -3 29 -19 24 -34 -10
-51 20 -51 91 l0 64 35 0 c30 0 35 3 35 24 0 21 -6 25 -32 28 -30 3 -33 6 -36
41 -3 33 -6 37 -32 37 -26 0 -29 -4 -32 -37z"/>
<path d="M4308 3743 c-2 -31 -7 -39 -25 -41 -35 -5 -32 -52 2 -52 24 0 25 -2
25 -75 0 -95 12 -122 63 -137 47 -14 71 -3 71 33 0 19 -5 24 -26 24 -39 1 -43
9 -43 83 l0 67 33 3 c26 3 32 7 32 28 0 18 -5 24 -23 24 -31 0 -47 18 -47 52
0 24 -4 28 -29 28 -27 0 -30 -3 -33 -37z"/>
<path d="M2530 3672 c-64 -63 -66 -134 -6 -199 28 -31 40 -37 87 -40 45 -4 60
-1 88 19 43 29 48 43 22 58 -16 8 -26 7 -46 -6 -49 -32 -125 -9 -125 38 0 16
9 18 100 18 l100 0 0 26 c0 39 -27 88 -59 107 -16 10 -50 17 -76 17 -41 0 -52
-5 -85 -38z m138 -33 c12 -11 20 -24 17 -30 -7 -11 -135 -12 -135 -1 0 5 9 18
20 30 26 28 69 28 98 1z"/>
<path d="M2886 3689 c-21 -17 -26 -18 -26 -5 0 11 -9 16 -30 16 l-30 0 0 -130
0 -130 29 0 29 0 3 86 c4 76 7 88 28 105 13 10 36 19 52 19 26 0 29 4 29 30 0
26 -3 30 -29 30 -15 0 -40 -9 -55 -21z"/>
<path d="M3763 3690 c-87 -52 -83 -198 6 -245 42 -21 107 -19 146 5 44 27 51
48 21 62 -19 8 -29 7 -47 -6 -31 -21 -72 -20 -100 3 -30 24 -33 89 -5 120 23
25 78 28 101 5 13 -14 20 -14 45 -4 25 10 28 15 19 31 -25 48 -128 65 -186 29z"/>
<path d="M4045 3700 c-12 -4 -27 -15 -34 -24 -12 -14 -11 -19 5 -31 16 -12 22
-12 41 1 34 21 79 18 97 -8 24 -34 20 -41 -24 -35 -85 11 -140 -25 -140 -91 0
-69 89 -108 150 -65 17 12 25 13 28 5 2 -7 17 -12 33 -12 l29 0 0 101 c0 55
-5 109 -10 120 -23 41 -118 63 -175 39z m123 -154 c12 -12 -35 -61 -62 -64
-49 -6 -72 31 -39 63 12 13 27 16 56 12 21 -3 41 -8 45 -11z"/>
<path d="M4535 3690 c-85 -56 -85 -187 0 -240 45 -28 112 -27 155 3 43 29 47
44 16 58 -21 10 -29 9 -44 -4 -40 -36 -122 -11 -122 36 0 15 13 17 100 17
l100 0 0 26 c0 39 -27 88 -59 107 -39 23 -109 22 -146 -3z m119 -51 c14 -11
24 -25 21 -30 -7 -10 -135 -13 -135 -2 0 16 45 53 65 53 12 0 34 -9 49 -21z"/>
<path d="M3250 3570 l0 -130 35 0 35 0 0 130 0 130 -35 0 -35 0 0 -130z"/>
<path d="M455 3203 c436 -7 785 -7 785 0 0 4 -215 6 -477 5 -263 -1 -401 -4
-308 -5z"/>
<path d="M5528 3066 l-32 -66 -2250 0 c-1237 0 -2251 -2 -2253 -4 -2 -2 -3
-17 -2 -32 1 -16 3 -230 3 -476 l1 -447 24 -11 c13 -6 124 -49 245 -95 246
-93 421 -160 856 -328 162 -63 297 -112 299 -110 3 2 -20 29 -50 61 -122 127
-399 456 -399 475 0 6 549 8 1463 5 804 -3 1687 -2 1962 1 l500 6 0 479 0 480
-149 58 c-82 32 -158 60 -168 63 -14 5 -24 -7 -50 -59z m-4122 -372 c46 -22
50 -32 26 -56 -19 -19 -22 -19 -43 -4 -57 40 -129 0 -129 -71 0 -21 7 -48 15
-60 22 -31 76 -39 114 -17 25 15 32 15 45 5 64 -53 -102 -107 -170 -55 -49 36
-68 70 -68 122 0 113 109 184 210 136z m675 0 c17 -21 0 -49 -31 -49 -31 0
-48 28 -31 49 8 9 21 16 31 16 10 0 23 -7 31 -16z m157 -15 c2 -20 -2 -28 -17
-32 -12 -3 -21 -10 -21 -16 0 -6 7 -8 15 -5 8 4 35 3 60 0 l45 -7 0 -100 0
-99 -30 0 -30 0 0 75 0 75 -35 0 -35 0 0 -75 0 -75 -30 0 -30 0 0 75 c0 61 -3
75 -16 75 -11 0 -14 8 -12 28 2 15 9 26 15 25 7 -2 15 8 19 22 8 32 51 67 78
63 14 -2 22 -12 24 -29z m80 19 c30 -30 -4 -77 -41 -57 -20 11 -23 55 -4 62
21 9 32 8 45 -5z m1516 -2 c43 -18 52 -34 32 -54 -13 -14 -20 -14 -36 -4 -61
38 -135 -6 -134 -81 2 -73 83 -113 143 -71 21 15 24 15 39 1 14 -15 14 -18 -3
-37 -52 -58 -171 -40 -215 33 -34 55 -22 148 24 186 17 14 83 40 104 41 7 0
28 -6 46 -14z m1374 5 c8 -4 12 -19 10 -32 -2 -18 -9 -24 -28 -24 -19 0 -26 6
-28 24 -3 20 11 41 28 41 3 0 11 -4 18 -9z m-1648 -26 c0 -20 -5 -25 -25 -25
-16 0 -25 -6 -25 -15 0 -9 9 -15 21 -15 30 0 22 -44 -8 -48 -22 -3 -23 -8 -23
-78 0 -72 -1 -74 -25 -74 -24 0 -25 2 -25 75 0 69 -2 75 -21 75 -16 0 -20 5
-17 28 2 19 8 26 21 24 11 -2 17 4 17 18 0 32 35 60 75 60 31 0 35 -3 35 -25z
m1200 -115 l0 -140 -25 0 -25 0 0 140 0 140 25 0 25 0 0 -140z m-2818 93 c2
-20 9 -28 23 -28 14 0 21 -8 23 -27 3 -24 0 -28 -22 -28 -23 0 -26 -4 -26 -37
0 -47 11 -66 33 -57 14 5 17 0 17 -25 0 -29 -2 -31 -39 -31 -50 0 -64 18 -69
91 -3 41 -9 59 -18 59 -19 0 -18 49 1 56 8 4 15 17 15 30 0 20 5 24 29 24 25
0 30 -4 33 -27z m898 -3 c0 -19 4 -28 13 -25 19 7 39 -10 35 -31 -2 -11 -13
-20 -26 -22 -21 -3 -23 -8 -20 -50 3 -42 5 -47 26 -45 18 2 22 -2 22 -27 0
-28 -2 -30 -39 -30 -52 0 -71 26 -71 97 0 40 -4 53 -15 53 -10 0 -15 10 -15
30 0 20 5 30 15 30 9 0 15 9 15 25 0 21 5 25 30 25 27 0 30 -3 30 -30z m2242
3 c2 -20 9 -29 26 -31 31 -5 27 -46 -5 -50 -19 -3 -23 -10 -23 -37 0 -46 9
-65 31 -65 14 0 19 -7 19 -25 0 -22 -4 -25 -34 -25 -47 0 -66 29 -66 97 0 38
-4 53 -14 53 -7 0 -16 9 -19 21 -4 15 0 23 14 26 13 4 19 14 19 34 0 24 4 29
24 29 19 0 25 -6 28 -27z m-3441 -51 c22 -19 31 -37 32 -62 l2 -35 -73 -3
c-63 -2 -72 -5 -62 -17 14 -17 66 -20 75 -5 14 23 59 3 50 -22 -4 -9 -21 -23
-39 -33 -71 -38 -156 14 -156 97 0 32 7 47 34 74 44 44 92 46 137 6z m107 16
c9 -9 15 -9 24 0 7 7 22 12 35 12 19 0 23 -5 23 -30 0 -24 -4 -30 -22 -30 -42
0 -52 -15 -56 -84 -4 -65 -5 -66 -33 -66 l-29 0 0 99 c0 98 3 108 36 110 5 1
15 -4 22 -11z m330 -96 l3 -102 -31 0 -30 0 0 98 c0 54 2 101 5 104 3 2 15 4
27 3 22 -2 23 -6 26 -103z m436 87 c33 -26 33 -36 1 -51 -19 -9 -28 -9 -37 0
-38 38 -93 -12 -70 -63 12 -26 55 -35 68 -14 3 6 19 9 35 5 17 -3 29 -1 29 5
0 5 11 21 25 34 18 18 35 25 65 25 22 0 40 5 40 10 0 18 -29 23 -61 10 -25
-11 -33 -11 -45 2 -14 14 -13 18 12 37 38 30 98 28 129 -4 22 -22 25 -32 25
-105 l0 -80 -37 -1 c-21 0 -56 0 -77 -1 -28 -1 -44 4 -55 18 -16 20 -16 20
-51 -4 -72 -49 -157 -7 -167 82 -5 42 -3 48 30 81 28 28 43 35 75 35 25 0 49
-8 66 -21z m557 -7 c22 -19 31 -37 32 -62 l2 -35 -73 -3 c-63 -2 -72 -5 -62
-17 14 -17 66 -20 75 -5 14 23 59 3 50 -22 -4 -9 -21 -23 -39 -33 -71 -38
-156 14 -156 97 0 32 7 47 34 74 44 44 92 46 137 6z m304 -2 c77 -73 7 -206
-97 -186 -48 9 -79 45 -85 100 -5 42 -3 48 31 82 34 34 40 36 82 31 28 -3 54
-13 69 -27z m702 10 c58 -35 64 -116 13 -165 -34 -33 -94 -38 -134 -11 -60 38
-55 139 8 177 40 24 73 24 113 -1z m210 5 c19 -13 24 -13 50 2 69 39 116 -16
111 -130 -3 -59 -4 -62 -30 -65 l-28 -3 0 68 c0 85 -19 112 -54 77 -11 -11
-16 -35 -16 -80 l0 -65 -27 3 c-27 3 -28 5 -31 75 -3 79 -18 97 -52 63 -16
-16 -20 -34 -20 -80 0 -57 -1 -60 -25 -60 l-25 0 0 100 0 100 25 0 c14 0 25
-4 25 -9 0 -6 12 -3 28 5 34 18 42 18 69 -1z m365 -14 c29 -26 33 -35 33 -80
0 -41 -5 -55 -26 -77 -28 -28 -88 -36 -112 -15 -11 8 -13 0 -13 -37 1 -44 -1
-47 -26 -50 l-28 -3 0 142 0 142 33 -6 c19 -3 40 -1 48 4 26 16 58 9 91 -20z
m315 -3 c12 -13 25 -38 29 -55 l7 -33 -77 0 c-80 0 -93 -9 -51 -36 23 -15 27
-15 50 0 20 13 30 14 46 5 l22 -11 -24 -23 c-57 -56 -157 -23 -173 56 -8 40
18 95 53 114 34 20 89 12 118 -17z m444 9 c42 -28 58 -80 39 -127 -17 -42 -51
-63 -102 -63 -57 0 -98 44 -98 106 1 48 14 70 56 92 40 21 65 19 105 -8z m234
-2 c22 -22 25 -32 25 -105 0 -78 -1 -80 -24 -80 -22 0 -24 4 -28 71 -2 47 -8
73 -18 79 -37 23 -54 0 -60 -77 -5 -65 -6 -68 -32 -71 l-28 -3 0 102 0 102 33
-5 c17 -3 41 -2 52 3 35 14 55 10 80 -16z m-430 -85 l0 -95 -27 -3 -28 -3 0
101 0 101 28 -3 27 -3 0 -95z"/>
<path d="M1553 2573 c-25 -10 -12 -23 22 -23 36 0 47 13 19 24 -18 7 -23 7
-41 -1z"/>
<path d="M2612 2497 c-10 -11 -9 -17 4 -28 18 -15 49 -1 49 22 0 19 -39 23
-53 6z"/>
<path d="M2983 2573 c-25 -10 -12 -23 22 -23 36 0 47 13 19 24 -18 7 -23 7
-41 -1z"/>
<path d="M3260 2551 c-14 -27 -13 -47 6 -65 23 -23 51 -19 70 9 14 21 15 31 6
50 -15 32 -66 35 -82 6z"/>
<path d="M3991 2564 c-24 -18 -28 -65 -7 -83 26 -22 69 -9 80 22 18 50 -31 90
-73 61z"/>
<path d="M4567 2573 c-10 -3 -22 -16 -28 -30 -19 -51 47 -99 80 -59 30 35 -8
99 -52 89z"/>
<path d="M4867 2573 c-16 -15 -4 -23 34 -23 36 0 40 2 29 15 -13 15 -51 20
-63 8z"/>
<path d="M5333 2569 c-49 -19 -36 -99 16 -99 35 0 53 20 49 56 -4 34 -35 55
-65 43z"/>
</g>
</svg>
